<?xml version="1.0" encoding="UTF-8" standalone="no"?>
<svg xmlns:xlink="http://www.w3.org/1999/xlink" height="155.25px" width="137.75px" xmlns="http://www.w3.org/2000/svg">
  <g transform="matrix(1.0, 0.0, 0.0, 1.0, 68.9, 64.95)">
    <use height="128.6" id="body" transform="matrix(0.9996, 0.0, 0.0, 1.0003, -66.9254, -64.1196)" width="134.65" xlink:href="#sprite0"/>
    <use height="155.25" transform="matrix(0.9996, 0.0, 0.0, 1.0003, -68.9248, -64.9737)" width="137.85" xlink:href="#shape1"/>
    <use height="71.65" id="chest" transform="matrix(0.9996, 0.0, 0.0, 1.0003, -33.1379, -10.4109)" width="66.2" xlink:href="#sprite1"/>
  </g>
  <defs>
    <g id="sprite0" transform="matrix(1.0, 0.0, 0.0, 1.0, 67.3, 64.25)">
      <use height="128.6" transform="matrix(1.0, 0.0, 0.0, 1.0, -67.3, -64.25)" width="134.65" xlink:href="#shape0"/>
    </g>
    <g id="shape0" transform="matrix(1.0, 0.0, 0.0, 1.0, 67.3, 64.25)">
      <path d="M13.15 -53.8 Q15.85 -50.25 18.2 -46.5 L19.1 -44.55 22.05 -37.15 24.2 -30.9 25.9 -26.0 28.6 -18.25 Q30.0 -13.9 32.95 -11.25 L32.95 -11.2 41.25 -3.05 Q44.2 -0.05 48.2 5.05 L55.05 14.35 54.9 14.2 Q60.8 22.85 65.0 31.95 L65.45 32.6 66.35 33.8 66.3 33.85 Q57.45 32.0 53.45 30.5 L49.35 28.7 Q49.15 28.4 48.95 28.6 48.65 28.75 48.45 28.4 L45.4 23.75 Q42.8 19.85 41.15 12.2 L40.8 10.35 40.6 10.2 39.95 9.9 39.6 9.95 Q39.25 10.05 39.05 10.4 L39.0 10.9 Q40.3 18.0 43.75 24.25 L43.8 24.85 43.8 24.95 Q49.65 32.1 50.0 40.85 L50.05 41.6 Q50.1 44.6 48.9 47.2 43.95 57.75 32.85 60.85 -2.05 65.35 -37.1 61.7 L-37.65 61.5 -37.75 61.5 Q-44.2 60.35 -46.8 57.85 -49.35 55.35 -51.65 50.95 -53.95 46.55 -52.05 38.15 -50.75 34.15 -49.1 31.7 -42.85 22.6 -41.2 12.25 L-41.35 12.1 Q-41.7 11.9 -42.0 11.8 L-42.3 11.85 -42.75 12.2 -42.9 12.7 -45.0 19.25 -45.3 20.0 -45.65 20.75 -50.1 29.55 Q-58.35 33.5 -66.3 36.75 L-64.85 33.9 Q-58.15 21.4 -51.05 8.85 L-49.45 6.1 -49.45 6.15 -49.2 5.7 -40.3 -5.05 -40.15 -5.2 -39.9 -5.45 -34.25 -10.3 -32.9 -11.65 -31.8 -12.95 Q-26.95 -23.5 -23.8 -33.25 -21.15 -41.55 -17.15 -49.3 L-14.8 -53.45 -11.6 -57.6 Q-9.55 -59.9 -6.65 -61.4 -5.0 -62.3 -3.2 -62.8 L-3.15 -62.8 Q2.95 -64.65 8.35 -59.15 11.0 -56.75 13.15 -53.8" fill="#650099" fill-rule="evenodd" stroke="none"/>
      <path d="M13.15 -53.8 Q15.85 -50.25 18.2 -46.5 L19.1 -44.55 22.05 -37.15 24.2 -30.9 25.9 -26.0 28.6 -18.25 Q30.0 -13.9 32.95 -11.25 L32.95 -11.2 41.25 -3.05 Q44.2 -0.05 48.2 5.05 L55.05 14.35 54.9 14.2 Q60.8 22.85 65.0 31.95 L65.45 32.6 66.35 33.8 66.3 33.85 Q57.45 32.0 53.45 30.5 L49.35 28.7 Q49.15 28.4 48.95 28.6 48.65 28.75 48.45 28.4 L45.4 23.75 Q42.8 19.85 41.15 12.2 L40.8 10.35 40.6 10.2 39.95 9.9 39.6 9.95 Q39.25 10.05 39.05 10.4 L39.0 10.9 Q40.3 18.0 43.75 24.25 L43.8 24.85 43.8 24.95 Q49.65 32.1 50.0 40.85 L50.05 41.6 Q50.1 44.6 48.9 47.2 43.95 57.75 32.85 60.85 -2.05 65.35 -37.1 61.7 L-37.65 61.5 -37.75 61.5 Q-44.2 60.35 -46.8 57.85 -49.35 55.35 -51.65 50.95 -53.95 46.55 -52.05 38.15 -50.75 34.15 -49.1 31.7 -42.85 22.6 -41.2 12.25 L-41.35 12.1 Q-41.7 11.9 -42.0 11.8 L-42.3 11.85 -42.75 12.2 -42.9 12.7 -45.0 19.25 -45.3 20.0 -45.65 20.75 -50.1 29.55 Q-58.35 33.5 -66.3 36.75 L-64.85 33.9 Q-58.15 21.4 -51.05 8.85 L-49.45 6.1 -49.45 6.15 -49.2 5.7 -40.3 -5.05 -40.15 -5.2 -39.9 -5.45 -34.25 -10.3 -32.9 -11.65 -31.8 -12.95 Q-26.95 -23.5 -23.8 -33.25 -21.15 -41.55 -17.15 -49.3 L-14.8 -53.45 -11.6 -57.6 Q-9.55 -59.9 -6.65 -61.4 -5.0 -62.3 -3.2 -62.8 L-3.15 -62.8 Q2.95 -64.65 8.35 -59.15 11.0 -56.75 13.15 -53.8 Z" fill="none" stroke="#650099" stroke-linecap="round" stroke-linejoin="round" stroke-width="2.0"/>
    </g>
    <g id="shape1" transform="matrix(1.0, 0.0, 0.0, 1.0, 68.9, 77.65)">
      <path d="M34.25 75.4 L18.05 77.15 2.55 77.45 -13.8 77.6 Q-25.5 77.8 -36.85 75.0 -40.9 74.0 -44.85 72.5 -46.95 71.6 -48.9 70.4 L-51.4 68.25 -52.35 66.5 -52.85 64.45 Q-55.85 62.9 -59.0 62.05 L-61.65 61.2 Q-63.2 60.75 -64.45 59.8 L-66.4 58.15 -68.5 56.0 -65.05 55.15 Q-62.95 54.7 -58.55 56.15 -54.2 57.55 -50.75 57.05 L-47.2 56.5 -47.2 65.55 -5.85 65.55 -5.85 52.7 8.25 52.7 8.25 67.1 46.75 67.1 46.75 57.5 48.9 57.85 54.8 57.45 60.6 56.05 68.75 56.35 65.0 58.95 60.55 61.6 Q59.0 62.4 57.4 62.75 L54.45 63.75 Q53.0 64.2 51.65 64.8 52.1 66.35 51.75 67.85 51.45 69.15 50.55 70.1 49.95 70.75 49.15 71.15 L45.95 72.55 40.8 73.8 34.25 75.4" fill="#000000" fill-opacity="0.4" fill-rule="evenodd" stroke="none"/>
      <path d="M3.0 -77.55 L4.85 -76.9 Q8.6 -75.25 11.35 -72.55 14.9 -69.2 17.75 -65.2 19.7 -62.3 21.15 -59.05 L24.6 -50.75 32.75 -27.4 Q37.75 -23.45 41.75 -18.55 L49.6 -8.55 57.1 1.45 61.75 8.85 66.15 16.35 67.8 19.4 68.95 22.7 63.65 22.15 Q56.5 21.1 49.8 18.05 L50.85 20.8 Q51.65 23.4 51.95 26.05 52.2 28.7 51.75 31.4 51.25 34.15 50.15 36.75 L47.75 40.95 Q45.35 44.25 42.1 46.7 38.65 49.1 34.45 50.1 L51.75 56.7 52.3 58.4 Q53.15 62.0 52.15 65.45 L50.85 69.35 46.4 70.5 Q41.9 71.55 37.15 71.85 L27.0 72.1 5.55 71.4 4.7 69.85 4.5 69.55 Q2.25 61.35 3.2 53.1 L-2.05 53.0 -1.95 57.25 -2.15 61.4 Q-2.5 65.35 -4.1 69.3 L-5.0 71.05 -5.3 71.25 -6.8 71.75 -9.65 72.25 Q-18.4 72.65 -27.0 72.0 L-42.45 69.55 Q-46.55 68.85 -50.05 66.5 L-50.95 63.75 Q-51.45 61.15 -51.15 58.5 -51.0 56.75 -49.7 55.85 L-47.35 54.3 Q-43.4 51.95 -38.75 50.65 L-40.8 50.3 -44.7 48.75 Q-48.25 47.2 -50.45 44.65 L-52.05 42.35 Q-54.3 38.3 -54.3 33.9 -54.25 26.5 -51.15 19.7 L-68.1 27.8 -68.9 27.35 -66.55 21.6 -64.05 16.3 -61.35 11.05 -58.5 5.8 -54.0 -1.9 -49.75 -8.45 -45.0 -14.6 -39.55 -20.25 Q-36.6 -22.95 -34.15 -25.9 -32.25 -28.4 -31.05 -31.2 L-28.8 -37.05 -25.05 -47.15 -21.75 -55.8 -18.8 -61.7 Q-16.35 -66.1 -13.45 -70.15 -11.55 -73.05 -8.45 -74.65 -5.35 -76.4 -2.75 -77.25 L3.0 -77.55 M7.75 -51.4 Q10.9 -49.2 12.2 -45.8 L11.0 -51.7 11.2 -51.4 11.9 -50.2 Q13.65 -45.75 13.05 -41.9 L12.8 -40.2 12.75 -39.95 Q12.5 -39.0 11.9 -38.2 L11.05 -36.85 15.35 -33.65 16.6 -32.55 Q17.25 -31.65 17.4 -30.6 18.15 -26.0 14.3 -23.1 L12.65 -21.85 9.65 -19.95 Q7.2 -18.55 4.3 -17.9 L-2.75 -17.45 Q-6.75 -17.85 -10.3 -19.3 -11.9 -19.9 -13.2 -20.75 L-14.8 -22.05 -17.55 -25.55 Q-18.55 -27.0 -18.6 -28.85 L-18.15 -30.5 Q-16.25 -34.3 -12.75 -37.0 -13.95 -38.75 -14.3 -40.65 L-14.4 -40.8 Q-15.3 -44.7 -13.8 -48.4 L-13.4 -49.4 -12.55 -51.2 -12.5 -51.3 -12.35 -51.35 Q-13.65 -46.4 -12.3 -48.65 L-11.95 -49.05 -10.85 -49.95 Q-7.0 -52.3 -2.2 -52.4 L-1.85 -52.75 -1.6 -54.0 -0.6 -54.0 -0.6 -53.9 0.4 -53.9 Q4.5 -53.7 7.75 -51.4 M18.6 -59.05 Q16.25 -62.8 13.55 -66.35 11.4 -69.3 8.75 -71.7 3.35 -77.2 -2.75 -75.35 L-2.8 -75.35 Q-4.6 -74.85 -6.25 -73.95 -9.15 -72.45 -11.2 -70.15 L-14.4 -66.0 -16.75 -61.85 Q-20.75 -54.1 -23.4 -45.8 -26.55 -36.05 -31.4 -25.5 L-32.5 -24.2 -33.85 -22.85 -39.5 -18.0 -39.75 -17.75 -39.9 -17.6 -48.8 -6.85 -49.05 -6.4 -49.05 -6.45 -50.65 -3.7 Q-57.75 8.85 -64.45 21.35 L-65.9 24.2 Q-57.95 20.95 -49.7 17.0 -47.35 12.7 -45.25 8.2 L-44.9 7.45 -44.6 6.7 -42.5 0.15 -42.35 -0.35 -41.9 -0.7 -41.6 -0.75 -40.95 -0.45 -40.8 -0.3 Q-42.45 10.05 -48.7 19.15 -50.35 21.6 -51.65 25.6 -53.55 34.0 -51.25 38.4 -49.25 42.25 -47.0 44.65 L-46.4 45.3 Q-43.8 47.8 -37.35 48.95 L-37.25 48.95 -36.7 49.15 -24.35 50.2 Q4.5 52.0 33.25 48.3 44.35 45.2 49.3 34.65 50.5 32.05 50.45 29.05 L50.4 28.3 Q50.05 19.55 44.2 12.4 L44.2 12.3 44.15 11.7 Q40.7 5.45 39.4 -1.65 L39.45 -2.15 40.0 -2.6 40.35 -2.65 41.0 -2.35 41.2 -2.2 41.55 -0.35 Q43.2 7.3 45.8 11.2 L48.85 15.85 Q49.05 16.2 49.35 16.05 49.55 15.85 49.75 16.15 L53.85 17.95 Q57.85 19.45 66.7 21.3 L66.75 21.25 65.85 20.05 65.4 19.4 Q61.2 10.3 55.3 1.65 L55.45 1.8 48.6 -7.5 Q44.6 -12.6 41.65 -15.6 L33.35 -23.75 33.35 -23.8 Q30.4 -26.45 29.0 -30.8 L26.3 -38.55 24.6 -43.45 22.45 -49.7 19.5 -57.1 18.6 -59.05 M3.4 -45.75 Q3.05 -45.2 3.55 -44.85 4.05 -44.55 4.5 -46.05 3.7 -46.3 3.4 -45.75 M11.35 -39.45 Q12.15 -41.2 11.85 -43.1 11.35 -45.6 9.65 -47.65 5.65 -52.45 -0.55 -52.25 L-1.05 -51.45 -1.65 -51.1 Q-5.35 -51.4 -8.65 -49.65 L-10.85 -48.1 Q-12.15 -47.0 -12.5 -45.3 L-12.9 -41.55 Q-13.05 -39.5 -11.6 -37.95 L-5.75 -42.55 -7.4 -43.7 Q-7.85 -44.1 -7.8 -44.55 -7.7 -46.8 -5.55 -47.45 L-4.1 -46.85 -3.3 -46.2 -3.3 -45.1 Q-3.4 -44.05 -4.25 -43.25 L0.0 -43.85 2.8 -43.4 2.3 -44.15 Q1.55 -45.7 2.8 -46.9 3.2 -47.3 4.15 -47.7 L5.75 -47.55 Q7.1 -46.6 6.8 -45.0 6.35 -43.15 4.45 -42.75 8.0 -41.0 10.05 -37.8 10.95 -38.5 11.35 -39.45 M10.75 -22.65 L11.1 -22.95 Q12.2 -23.95 12.8 -25.35 L13.15 -26.3 13.5 -29.55 Q13.6 -30.25 12.95 -30.55 L12.95 -31.2 13.35 -30.9 13.9 -29.85 Q14.45 -28.1 14.3 -26.3 L14.2 -25.25 Q15.95 -27.3 16.45 -28.8 16.75 -29.9 16.3 -30.75 L14.75 -32.8 Q13.3 -34.25 11.35 -35.05 8.75 -36.45 6.8 -38.8 5.15 -40.65 2.8 -41.95 0.3 -43.15 -2.2 -42.55 -6.7 -41.25 -9.8 -38.1 L-13.4 -34.9 Q-16.25 -32.55 -17.2 -29.25 -17.5 -28.4 -16.8 -27.5 L-15.7 -26.45 Q-15.1 -30.55 -14.05 -31.4 L-13.9 -30.45 -14.45 -30.0 Q-15.15 -25.25 -13.1 -22.7 -6.45 -18.0 2.0 -18.8 7.2 -19.45 10.75 -22.65 M-6.5 -44.7 Q-6.3 -44.05 -5.9 -44.85 L-5.55 -45.8 -5.65 -46.0 -6.65 -45.5 -6.5 -44.7 M-13.35 -47.0 L-13.3 -47.1 -13.3 -47.15 -13.35 -47.0 M-3.8 53.4 L-3.8 53.35 -3.8 52.9 -34.65 51.1 -49.25 56.5 Q-47.45 58.15 -45.2 59.2 -42.25 60.4 -38.95 60.7 L-22.85 61.55 -21.35 61.65 -27.15 62.35 -27.3 62.4 -27.75 62.45 Q-30.75 62.7 -35.2 62.4 L-43.65 61.45 Q-47.25 60.8 -48.95 59.0 L-50.1 57.8 -48.95 65.15 Q-46.05 66.85 -42.85 68.15 -37.4 70.15 -31.6 70.35 -18.6 71.25 -5.75 69.35 -4.7 66.2 -4.25 63.05 L-3.9 59.3 -3.8 53.4 M22.25 61.6 L30.4 60.8 Q42.7 59.55 45.55 58.7 L49.6 57.25 Q40.4 54.8 31.75 50.8 L31.45 50.65 Q18.65 52.9 5.6 53.1 L4.4 53.1 5.1 62.0 5.2 63.25 5.25 63.3 6.0 69.1 6.0 69.3 Q6.3 69.4 6.5 69.65 26.8 72.2 46.6 68.35 L49.7 67.75 Q51.45 63.25 50.65 58.5 48.85 60.25 45.65 60.7 L42.5 61.15 33.45 62.1 Q24.05 62.8 14.65 62.3 L22.25 61.6" fill="#000000" fill-rule="evenodd" stroke="none"/>
      <path d="M11.35 -39.45 Q10.95 -38.5 10.05 -37.8 8.0 -41.0 4.45 -42.75 6.35 -43.15 6.8 -45.0 7.1 -46.6 5.75 -47.55 L4.15 -47.7 Q3.2 -47.3 2.8 -46.9 1.55 -45.7 2.3 -44.15 L2.8 -43.4 0.0 -43.85 -4.25 -43.25 Q-3.4 -44.05 -3.3 -45.1 L-3.3 -46.2 -4.1 -46.85 -5.55 -47.45 Q-7.7 -46.8 -7.8 -44.55 -7.85 -44.1 -7.4 -43.7 L-5.75 -42.55 -11.6 -37.95 Q-13.05 -39.5 -12.9 -41.55 L-12.5 -45.3 Q-12.15 -47.0 -10.85 -48.1 L-8.65 -49.65 Q-5.35 -51.4 -1.65 -51.1 L-1.05 -51.45 -0.55 -52.25 Q5.65 -52.45 9.65 -47.65 11.35 -45.6 11.85 -43.1 12.15 -41.2 11.35 -39.45 M3.4 -45.75 Q3.7 -46.3 4.5 -46.05 4.05 -44.55 3.55 -44.85 3.05 -45.2 3.4 -45.75 M-6.5 -44.7 L-6.65 -45.5 -5.65 -46.0 -5.55 -45.8 -5.9 -44.85 Q-6.3 -44.05 -6.5 -44.7" fill="#ffffff" fill-rule="evenodd" stroke="none"/>
      <path d="M-13.1 -22.7 Q-15.15 -25.25 -14.45 -30.0 L-13.9 -30.45 -14.05 -31.4 Q-15.1 -30.55 -15.7 -26.45 L-16.8 -27.5 Q-17.5 -28.4 -17.2 -29.25 -16.25 -32.55 -13.4 -34.9 L-9.8 -38.1 Q-6.7 -41.25 -2.2 -42.55 0.3 -43.15 2.8 -41.95 5.15 -40.65 6.8 -38.8 8.75 -36.45 11.35 -35.05 13.3 -34.25 14.75 -32.8 L16.3 -30.75 Q16.75 -29.9 16.45 -28.8 15.95 -27.3 14.2 -25.25 L14.3 -26.3 Q14.45 -28.1 13.9 -29.85 L13.35 -30.9 12.95 -31.2 12.95 -30.55 Q13.6 -30.25 13.5 -29.55 L13.15 -26.3 12.8 -25.35 Q12.2 -23.95 11.1 -22.95 L10.75 -22.65 Q-0.5 -18.8 -13.1 -22.7 M-22.85 61.55 L-38.95 60.7 Q-42.25 60.4 -45.2 59.2 -47.45 58.15 -49.25 56.5 L-34.65 51.1 -3.8 52.9 -3.8 53.35 -3.8 53.4 -5.85 60.0 Q-7.3 60.9 -9.0 60.95 L-22.85 61.55 M5.6 53.1 Q18.65 52.9 31.45 50.65 L31.75 50.8 Q40.4 54.8 49.6 57.25 L45.55 58.7 Q42.7 59.55 30.4 60.8 L22.25 61.6 16.1 61.5 9.1 62.25 8.6 62.3 8.45 62.4 8.3 62.55 5.65 53.7 5.6 53.1" fill="#ffb409" fill-rule="evenodd" stroke="none"/>
      <path d="M-13.1 -22.7 Q-0.5 -18.8 10.75 -22.65 7.2 -19.45 2.0 -18.8 -6.45 -18.0 -13.1 -22.7 M-3.8 53.4 L-3.9 59.3 -4.25 63.05 Q-4.7 66.2 -5.75 69.35 -18.6 71.25 -31.6 70.35 -37.4 70.15 -42.85 68.15 -46.05 66.85 -48.95 65.15 L-50.1 57.8 -48.95 59.0 Q-47.25 60.8 -43.65 61.45 L-35.2 62.4 Q-30.75 62.7 -27.75 62.45 L-27.3 62.4 -27.15 62.35 -21.35 61.65 -22.85 61.55 -9.0 60.95 Q-7.3 60.9 -5.85 60.0 L-3.8 53.4 M22.25 61.6 L14.65 62.3 Q24.05 62.8 33.45 62.1 L42.5 61.15 45.65 60.7 Q48.85 60.25 50.65 58.5 51.45 63.25 49.7 67.75 L46.6 68.35 Q26.8 72.2 6.5 69.65 6.3 69.4 6.0 69.3 L6.0 69.1 5.25 63.3 5.2 63.25 5.1 62.0 4.4 53.1 5.6 53.1 5.65 53.7 8.3 62.55 8.45 62.4 8.6 62.3 9.1 62.25 16.1 61.5 22.25 61.6" fill="#f99108" fill-rule="evenodd" stroke="none"/>
      <path d="M33.15 -23.85 L33.3 -23.75 33.3 -23.7 41.6 -15.55 Q44.55 -12.55 48.55 -7.45 39.8 -11.75 33.8 -19.6 32.75 -21.75 33.15 -23.85 M-48.85 -6.8 L-39.95 -17.55 -39.8 -17.7 -39.55 -17.95 Q-35.7 -21.1 -33.9 -22.8 -33.95 -21.1 -34.3 -19.35 L-34.55 -18.55 Q-41.3 -11.75 -49.05 -6.4 L-48.85 -6.8" fill="#ffffff" fill-opacity="0.2509804" fill-rule="evenodd" stroke="none"/>
      <path d="M66.7 21.3 L66.65 21.35 Q57.8 19.5 53.8 18.0 L49.7 16.2 Q49.5 15.9 49.3 16.1 49.0 16.25 48.8 15.9 L45.75 11.25 Q43.15 7.35 41.5 -0.3 49.75 13.8 65.35 19.45 L65.8 20.1 66.7 21.3 M49.25 34.7 Q44.3 45.25 33.2 48.35 4.45 52.05 -24.35 50.25 L-36.75 49.2 -37.3 49.0 -37.4 49.0 Q-43.85 47.85 -46.45 45.35 L-47.1 44.65 Q-49.3 42.25 -51.3 38.45 -53.6 34.05 -51.7 25.65 -43.55 47.2 -27.05 40.25 L-24.95 42.45 -21.5 44.95 Q-18.8 46.2 -15.75 46.95 L-9.85 48.35 Q0.05 49.25 9.95 46.95 L14.25 45.7 21.05 42.9 24.5 41.1 25.2 40.7 25.5 40.5 Q40.9 44.65 50.35 28.35 L50.4 29.1 Q50.45 32.1 49.25 34.7 M-65.95 24.25 Q-51.9 16.0 -42.45 -0.25 L-42.55 0.2 -44.65 6.75 -44.95 7.5 -45.3 8.25 Q-47.4 12.75 -49.75 17.05 -58.0 21.0 -65.95 24.25" fill="#000000" fill-opacity="0.4" fill-rule="evenodd" stroke="none"/>
    </g>
    <g id="sprite1" transform="matrix(1.0, 0.0, 0.0, 1.0, 33.1, 35.8)">
      <use height="71.65" transform="matrix(1.0, 0.0, 0.0, 1.0, -33.1, -35.8)" width="66.2" xlink:href="#shape2"/>
    </g>
    <g id="shape2" transform="matrix(1.0, 0.0, 0.0, 1.0, 33.1, 35.8)">
      <path d="M-13.2 -33.45 Q-11.9 -32.6 -10.3 -32.0 -6.75 -30.55 -2.75 -30.15 L4.3 -30.6 Q7.2 -31.25 9.65 -32.65 L12.65 -34.55 12.9 -34.7 13.3 -32.8 12.25 -31.9 11.95 -31.65 Q5.65 -23.25 -6.0 -26.5 -12.3 -28.25 -13.2 -33.45 M-24.2 28.2 Q-1.55 31.8 21.1 27.65 14.85 31.45 6.35 32.25 L-10.35 33.4 Q-18.65 33.6 -24.2 28.2" fill="#cccccc" fill-rule="evenodd" stroke="none"/>
      <path d="M12.9 -34.7 L14.3 -35.8 15.15 -32.6 Q17.1 -24.7 22.0 -17.85 L27.5 -9.85 Q30.4 -5.25 31.95 -0.1 32.7 2.35 32.95 5.0 33.3 8.4 32.95 11.95 L31.8 18.05 Q30.95 21.35 29.05 24.15 27.6 26.25 25.55 27.75 25.4 27.8 25.25 27.95 L24.55 28.35 21.1 30.15 14.3 32.95 10.0 34.2 Q0.1 36.5 -9.8 35.6 L-15.7 34.2 Q-18.75 33.45 -21.45 32.2 -23.4 31.15 -24.9 29.7 L-27.0 27.5 Q-29.85 24.15 -31.35 20.1 -34.65 11.15 -31.7 2.1 -28.2 -8.45 -22.3 -17.9 -21.05 -19.8 -19.95 -21.85 -16.75 -28.0 -14.85 -34.7 L-13.2 -33.45 -13.5 -33.65 Q-14.55 -28.6 -16.85 -23.6 -20.85 -15.1 -26.0 -7.2 -27.8 -4.55 -28.95 -1.5 -30.75 3.3 -30.9 8.15 -31.05 14.05 -29.9 20.0 -27.5 25.05 -24.2 28.2 -18.65 33.6 -10.35 33.4 L6.35 32.25 Q14.85 31.45 21.1 27.65 27.25 25.45 30.3 18.0 L31.1 15.65 Q31.85 11.9 31.95 8.15 L31.65 4.9 Q30.5 -3.3 25.0 -10.0 17.8 -18.95 13.95 -29.4 L13.3 -32.8 12.9 -34.7" fill="#000000" fill-rule="evenodd" stroke="none"/>
      <path d="M-24.2 28.2 Q-27.5 25.05 -29.9 20.0 -31.05 14.05 -30.9 8.15 -30.75 3.3 -28.95 -1.5 -27.8 -4.55 -26.0 -7.2 -20.85 -15.1 -16.85 -23.6 -14.55 -28.6 -13.5 -33.65 L-13.2 -33.45 Q-12.3 -28.25 -6.0 -26.5 5.65 -23.25 11.95 -31.65 L12.25 -31.9 13.3 -32.8 13.95 -29.4 Q17.8 -18.95 25.0 -10.0 30.5 -3.3 31.65 4.9 L31.95 8.15 Q31.85 11.9 31.1 15.65 L30.3 18.0 Q27.25 25.45 21.1 27.65 -1.55 31.8 -24.2 28.2" fill="#ffffff" fill-rule="evenodd" stroke="none"/>
    </g>
  </defs>
</svg>
