<?xml version="1.0" encoding="UTF-8" standalone="no"?>
<svg xmlns:xlink="http://www.w3.org/1999/xlink" height="151.85px" width="114.0px" xmlns="http://www.w3.org/2000/svg">
  <g transform="matrix(1.0, 0.0, 0.0, 1.0, 0.05, 0.05)">
    <use height="108.55" id="body" transform="matrix(1.0, 0.0, 0.0, 1.0, 0.75, 0.5)" width="69.55" xlink:href="#sprite0"/>
    <use height="151.85" transform="matrix(1.0, 0.0, 0.0, 1.0, -0.05, -0.05)" width="114.0" xlink:href="#shape1"/>
    <use height="60.45" transform="matrix(1.0, 0.0, 0.0, 1.0, 10.2, 30.3)" width="59.15" xlink:href="#sprite1"/>
    <use height="97.55" transform="matrix(1.0, 0.0, 0.0, 1.0, 1.45, 10.5)" width="38.6" xlink:href="#sprite2"/>
  </g>
  <defs>
    <g id="sprite0" transform="matrix(1.0, 0.0, 0.0, 1.0, 1.0, 1.0)">
      <use height="108.55" transform="matrix(1.0, 0.0, 0.0, 1.0, -1.0, -1.0)" width="69.55" xlink:href="#shape0"/>
    </g>
    <g id="shape0" transform="matrix(1.0, 0.0, 0.0, 1.0, 1.0, 1.0)">
      <path d="M46.95 19.6 Q48.55 22.35 49.25 25.4 50.0 28.55 50.0 34.25 L50.0 35.8 50.8 44.15 40.05 39.95 Q35.7 38.15 33.9 36.55 L33.3 35.5 33.65 35.05 Q34.75 33.5 35.4 30.15 L35.75 27.9 36.35 25.35 Q36.55 23.95 36.35 22.65 L35.75 19.1 35.3 16.35 Q34.8 14.25 32.9 9.0 L32.7 8.5 34.2 6.95 Q35.0 6.5 35.55 5.45 36.15 4.4 36.15 3.6 L36.1 2.95 35.7 2.5 Q35.25 2.65 35.2 3.5 L34.95 4.75 33.75 5.9 Q32.95 6.5 32.95 6.95 L32.95 7.0 30.35 8.95 Q27.8 6.2 28.35 2.6 28.5 1.7 29.15 1.05 L30.65 0.2 33.3 0.0 Q35.75 0.3 37.95 1.6 L43.25 11.8 45.2 16.2 46.95 19.6 M5.25 17.95 L5.35 17.9 5.45 17.85 5.6 17.8 5.65 17.8 8.95 17.5 10.25 17.75 Q11.5 18.1 12.75 18.6 14.7 19.45 16.5 20.75 L15.95 20.85 15.7 20.3 13.0 20.45 12.15 21.4 15.7 21.0 14.8 22.6 Q14.45 23.45 14.35 24.4 L11.55 27.9 Q10.2 27.65 9.15 28.3 8.1 29.0 7.1 29.8 L8.4 25.9 Q7.0 26.6 6.6 28.0 6.0 30.2 6.6 32.55 L8.0 30.1 11.1 28.65 Q10.15 30.35 9.75 32.15 9.4 33.7 9.5 35.3 9.6 36.65 10.2 37.75 11.35 39.7 13.25 40.65 15.15 41.65 17.35 42.1 L20.15 42.2 Q22.05 45.75 23.45 49.45 L25.0 54.2 25.7 57.2 26.8 62.1 Q26.1 62.65 25.55 63.5 24.2 65.2 24.0 67.5 L24.0 68.85 24.2 70.2 25.0 73.4 25.6 76.45 25.7 76.9 Q27.35 84.05 28.6 85.05 L22.1 89.25 20.15 87.3 19.65 86.75 19.1 86.1 Q17.1 83.75 15.55 81.0 L18.45 74.55 Q21.2 68.5 22.9 62.05 19.9 68.7 16.4 75.15 13.9 79.65 11.85 84.2 7.7 93.35 7.65 103.6 L6.65 105.0 6.25 105.55 5.85 106.15 5.65 106.5 5.6 106.55 5.35 106.3 5.45 105.75 5.1 105.3 Q3.85 102.65 2.8 97.2 1.7 91.7 1.7 87.95 L1.95 81.1 2.8 72.5 3.0 71.1 4.8 59.45 Q5.4 55.55 4.85 51.85 L4.3 48.65 4.3 48.45 3.4 43.95 3.35 43.75 2.45 40.05 1.7 37.1 1.15 35.0 Q0.0 30.35 0.0 29.45 L0.1 27.4 Q0.35 24.6 1.4 22.3 2.65 19.55 4.75 18.15 L5.1 18.0 5.25 17.95 M17.8 21.4 Q16.35 22.4 15.1 23.65 L16.8 20.9 17.8 21.4 M31.3 35.5 L32.95 36.85 Q38.0 40.6 45.45 43.35 50.55 45.25 59.2 49.7 61.45 50.85 65.1 54.35 L66.05 55.3 67.55 56.75 66.9 59.1 66.7 59.7 66.6 60.05 66.4 59.75 64.4 57.2 61.8 54.6 Q57.15 50.5 51.85 48.95 40.8 45.6 36.8 44.05 33.75 42.85 31.05 41.45 28.25 39.95 25.85 38.3 25.75 37.0 24.95 35.5 24.1 33.85 22.85 32.85 L24.05 31.35 25.9 28.8 Q27.65 32.35 31.3 35.5" fill="#003265" fill-rule="evenodd" stroke="none"/>
      <path d="M46.95 19.6 Q48.55 22.35 49.25 25.4 50.0 28.55 50.0 34.25 L50.0 35.8 50.8 44.15 40.05 39.95 Q35.7 38.15 33.9 36.55 L33.3 35.5 33.65 35.05 Q34.75 33.5 35.4 30.15 L35.75 27.9 36.35 25.35 Q36.55 23.95 36.35 22.65 L35.75 19.1 35.3 16.35 Q34.8 14.25 32.9 9.0 L32.7 8.5 34.2 6.95 Q35.0 6.5 35.55 5.45 36.15 4.4 36.15 3.6 L36.1 2.95 35.7 2.5 Q35.25 2.65 35.2 3.5 L34.95 4.75 33.75 5.9 Q32.95 6.5 32.95 6.95 L32.95 7.0 30.35 8.95 Q27.8 6.2 28.35 2.6 28.5 1.7 29.15 1.05 L30.65 0.2 33.3 0.0 Q35.75 0.3 37.95 1.6 L43.25 11.8 45.2 16.2 46.95 19.6 M5.25 17.95 L5.35 17.9 5.45 17.85 5.6 17.8 5.65 17.8 8.95 17.5 10.25 17.75 Q11.5 18.1 12.75 18.6 14.7 19.45 16.5 20.75 L15.95 20.85 15.7 20.3 13.0 20.45 12.15 21.4 15.7 21.0 14.8 22.6 Q14.45 23.45 14.35 24.4 L11.55 27.9 Q10.2 27.65 9.15 28.3 8.1 29.0 7.1 29.8 L8.4 25.9 Q7.0 26.6 6.6 28.0 6.0 30.2 6.6 32.55 L8.0 30.1 11.1 28.65 Q10.15 30.35 9.75 32.15 9.4 33.7 9.5 35.3 9.6 36.65 10.2 37.75 11.35 39.7 13.25 40.65 15.15 41.65 17.35 42.1 L20.15 42.2 Q22.05 45.75 23.45 49.45 L25.0 54.2 25.7 57.2 26.8 62.1 Q26.1 62.65 25.55 63.5 24.2 65.2 24.0 67.5 L24.0 68.85 24.2 70.2 25.0 73.4 25.6 76.45 25.7 76.9 Q27.35 84.05 28.6 85.05 L22.1 89.25 20.15 87.3 19.65 86.75 19.1 86.1 Q17.1 83.75 15.55 81.0 L18.45 74.55 Q21.2 68.5 22.9 62.05 19.9 68.7 16.4 75.15 13.9 79.65 11.85 84.2 7.7 93.35 7.65 103.6 L6.65 105.0 6.25 105.55 5.85 106.15 5.65 106.5 5.6 106.55 5.35 106.3 5.45 105.75 5.1 105.3 Q3.85 102.65 2.8 97.2 1.7 91.7 1.7 87.95 L1.95 81.1 2.8 72.5 3.0 71.1 4.8 59.45 Q5.4 55.55 4.85 51.85 L4.3 48.65 4.3 48.45 3.4 43.95 3.35 43.75 2.45 40.05 1.7 37.1 1.15 35.0 Q0.0 30.35 0.0 29.45 L0.1 27.4 Q0.35 24.6 1.4 22.3 2.65 19.55 4.75 18.15 L5.1 18.0 5.25 17.95 M17.8 21.4 Q16.35 22.4 15.1 23.65 L16.8 20.9 17.8 21.4 M31.3 35.5 Q27.65 32.35 25.9 28.8 L24.05 31.35 22.85 32.85 Q24.1 33.85 24.95 35.5 25.75 37.0 25.85 38.3 28.25 39.95 31.05 41.45 33.75 42.85 36.8 44.05 40.8 45.6 51.85 48.95 57.15 50.5 61.8 54.6 L64.4 57.2 66.4 59.75 66.6 60.05 66.7 59.7 66.9 59.1 67.55 56.75 66.05 55.3 65.1 54.35 Q61.45 50.85 59.2 49.7 50.55 45.25 45.45 43.35 38.0 40.6 32.95 36.85 L31.3 35.5" fill="none" stroke="#003265" stroke-linecap="round" stroke-linejoin="round" stroke-width="2.0"/>
    </g>
    <g id="shape1" transform="matrix(1.0, 0.0, 0.0, 1.0, 0.05, 0.05)">
      <path d="M95.75 89.25 Q102.05 90.25 107.2 94.0 109.9 95.95 111.45 98.85 L112.6 101.8 112.9 102.85 113.2 104.25 111.95 109.35 111.85 109.2 111.9 109.4 110.4 112.75 Q107.1 119.5 102.15 124.9 98.6 128.75 94.35 132.2 L92.1 133.95 91.5 133.45 91.8 134.2 Q83.75 140.0 74.65 143.8 65.4 147.6 55.8 149.3 L45.05 151.0 43.55 151.1 43.5 151.1 Q34.55 151.55 25.8 149.4 20.05 148.1 15.1 145.35 L13.05 144.05 Q8.25 140.95 5.35 136.05 5.3 134.4 5.6 132.75 6.2 129.5 8.05 126.1 L8.8 124.8 8.95 124.6 Q14.0 116.95 21.1 111.2 29.05 104.85 38.2 100.35 47.6 95.7 57.7 92.55 L58.1 92.4 Q75.2 87.2 89.95 88.45 L95.55 89.2 95.4 89.45 95.75 89.25" fill="#9c0000" fill-rule="evenodd" stroke="none"/>
      <path d="M31.2 86.05 Q30.4 84.15 28.75 78.75 L28.25 77.1 Q26.65 71.65 26.65 70.05 L26.7 69.7 Q29.7 67.2 33.7 65.55 43.3 61.6 52.6 61.1 52.95 62.25 53.1 64.45 L53.1 65.0 Q51.4 64.05 49.3 63.95 L47.25 64.15 47.2 63.85 47.1 63.7 Q41.1 64.6 36.6 66.65 L34.35 67.55 Q33.5 67.9 33.1 68.45 32.25 69.1 31.7 69.9 L31.65 69.95 30.7 71.45 30.9 71.25 31.0 71.15 Q30.3 73.05 30.9 75.65 31.45 77.9 32.3 79.7 L32.4 80.1 32.8 85.15 32.35 85.4 31.2 86.05 M67.95 74.15 Q67.95 69.8 68.7 67.15 69.4 64.45 69.4 62.95 L69.45 62.6 69.9 61.05 70.05 60.45 Q70.6 58.55 71.6 56.85 80.1 54.9 89.1 57.4 L93.75 58.6 95.3 59.25 Q97.2 60.1 99.0 60.75 L98.6 62.0 98.05 63.7 Q96.15 62.2 93.75 61.3 87.5 58.9 80.8 58.45 77.35 58.5 75.05 61.0 70.4 66.15 69.85 72.8 L69.8 73.95 67.95 74.15 M25.7 21.3 L25.55 22.8 Q23.85 35.15 12.35 34.45 L12.25 34.45 Q12.55 32.95 13.5 31.3 15.1 32.25 17.35 30.35 21.15 27.1 20.0 23.9 L20.5 23.5 Q23.55 21.3 25.7 21.3" fill="#ffb409" fill-rule="evenodd" stroke="none"/>
      <path d="M26.7 69.7 L26.75 69.6 26.75 69.55 26.75 69.4 26.75 69.25 26.8 69.0 26.95 68.55 26.95 68.45 27.1 68.05 27.2 67.9 27.85 66.65 29.2 64.8 29.45 64.45 Q31.35 63.05 34.35 61.8 41.5 58.8 47.85 58.8 L50.7 59.25 51.4 59.55 52.25 60.4 52.3 60.5 52.6 61.1 Q43.3 61.6 33.7 65.55 29.7 67.2 26.7 69.7 M71.6 56.85 L71.7 56.65 Q72.75 54.8 74.4 53.9 L74.6 53.8 75.25 53.55 77.4 53.1 77.8 53.05 78.05 53.05 85.3 53.75 Q89.25 54.4 92.9 56.25 L99.35 59.55 99.3 59.7 99.0 60.75 Q97.2 60.1 95.3 59.25 L93.75 58.6 89.1 57.4 Q80.1 54.9 71.6 56.85 M20.0 23.9 Q21.15 27.1 17.35 30.35 15.1 32.25 13.5 31.3 L14.05 30.35 14.7 29.35 15.0 28.95 19.7 24.15 19.95 23.95 20.0 23.9" fill="#ffdc31" fill-rule="evenodd" stroke="none"/>
      <path d="M33.8 10.7 L32.1 11.7 Q31.05 11.55 30.5 10.7 29.2 8.55 28.9 5.95 L28.6 3.85 Q28.45 2.7 29.25 1.95 31.5 -0.25 34.85 -0.05 L37.2 0.3 38.6 1.1 38.9 1.25 40.1 2.2 45.65 11.5 50.8 21.05 51.9 23.7 Q53.2 27.3 53.55 31.3 54.25 38.75 53.95 46.25 L60.8 49.5 Q63.15 50.7 65.5 52.25 67.7 53.55 69.4 55.5 L69.95 56.2 70.65 54.8 70.85 54.35 Q71.3 53.6 72.0 53.2 74.85 51.35 78.25 51.4 89.25 51.95 98.75 57.25 100.15 58.05 100.8 59.3 100.35 62.8 99.1 66.2 98.7 67.25 97.75 68.05 93.65 71.4 90.95 75.85 L90.65 75.8 Q90.8 73.0 92.8 70.8 L95.5 67.95 Q96.75 66.75 97.5 65.0 L98.05 63.7 98.6 62.0 99.0 60.75 99.3 59.7 99.35 59.55 92.9 56.25 Q89.25 54.4 85.3 53.75 L78.05 53.05 77.8 53.05 77.4 53.1 75.25 53.55 74.6 53.8 74.4 53.9 Q72.75 54.8 71.7 56.65 L71.6 56.85 Q70.6 58.55 70.05 60.45 L69.9 61.05 69.45 62.6 69.4 62.95 Q69.4 64.45 68.7 67.15 67.95 69.8 67.95 74.15 L67.95 74.2 67.45 74.45 67.25 74.25 Q66.7 73.4 66.7 71.0 66.7 67.1 67.95 62.8 L68.05 62.6 67.15 61.4 65.5 59.55 Q63.2 57.15 60.35 55.3 57.6 53.55 54.45 52.4 50.35 50.7 46.15 49.25 L39.35 46.95 Q35.7 45.7 32.5 43.8 29.9 42.3 27.6 40.35 27.35 41.5 26.65 42.25 L26.1 42.65 Q25.0 43.2 23.8 43.4 L22.25 43.7 Q24.5 47.05 26.05 50.6 28.6 56.5 29.35 63.05 L30.1 62.75 Q38.45 58.5 47.85 57.55 L49.75 57.45 Q51.8 57.8 52.8 59.6 L53.5 61.3 54.2 64.15 54.55 65.95 Q52.05 71.05 51.85 76.65 L50.6 77.15 50.6 76.25 Q50.6 73.8 51.85 69.85 L53.1 66.0 53.1 65.0 53.1 64.45 Q52.95 62.25 52.6 61.1 L52.3 60.5 52.25 60.4 51.4 59.55 50.7 59.25 47.85 58.8 Q41.5 58.8 34.35 61.8 31.35 63.05 29.45 64.45 L29.2 64.8 27.85 66.65 27.2 67.9 27.1 68.05 26.95 68.45 26.95 68.55 26.8 69.0 26.75 69.25 26.75 69.4 26.75 69.55 26.75 69.6 26.7 69.7 26.65 70.05 Q26.65 71.65 28.25 77.1 L28.75 78.75 Q30.4 84.15 31.2 86.05 L31.25 86.2 31.2 86.5 30.7 86.7 30.35 86.55 Q29.1 85.55 27.45 78.4 L27.35 77.95 26.75 74.9 25.95 71.7 25.75 70.35 25.75 69.0 Q25.95 66.7 27.3 65.0 27.85 64.15 28.55 63.6 L27.45 58.7 26.75 55.7 25.2 50.95 Q23.8 47.25 21.9 43.7 L19.1 43.6 Q16.9 43.15 15.0 42.15 13.1 41.2 11.95 39.25 11.35 38.15 11.25 36.8 11.15 35.2 11.5 33.65 11.9 31.85 12.85 30.15 L9.75 31.6 8.35 34.05 Q7.75 31.7 8.35 29.5 8.75 28.1 10.15 27.4 L8.85 31.3 Q9.85 30.5 10.9 29.8 11.95 29.15 13.3 29.4 L16.1 25.9 Q16.2 24.95 16.55 24.1 L17.45 22.5 13.9 22.9 14.75 21.95 17.45 21.8 17.7 22.35 18.25 22.25 Q16.45 20.95 14.5 20.1 L12.0 19.25 10.7 19.0 7.4 19.3 7.35 19.3 7.2 19.35 7.1 19.4 7.0 19.45 6.85 19.5 6.5 19.65 Q4.4 21.05 3.15 23.8 2.1 26.1 1.85 28.9 L1.75 30.95 Q1.75 31.85 2.9 36.5 L3.45 38.6 4.2 41.55 5.1 45.25 5.15 45.45 6.05 49.95 6.05 50.15 6.6 53.35 Q7.15 57.05 6.55 60.95 L4.75 72.6 4.55 74.0 3.7 82.6 3.45 89.45 Q3.45 93.2 4.55 98.7 5.6 104.15 6.85 106.8 L7.2 107.25 7.1 107.8 7.15 108.25 7.15 108.4 Q7.1 109.35 6.45 110.0 L6.35 110.0 5.7 112.2 7.35 115.6 8.05 115.15 8.25 115.0 Q15.55 109.95 21.0 103.35 L19.55 101.5 16.6 97.75 16.15 97.75 16.15 98.15 Q16.35 100.45 14.95 100.45 14.35 100.45 13.95 99.7 L13.9 99.6 13.75 99.25 13.3 98.75 11.8 98.7 10.95 103.0 9.4 105.1 10.95 103.0 Q10.95 103.85 10.5 104.5 10.05 105.1 9.4 105.1 9.45 94.85 13.6 85.7 15.65 81.15 18.15 76.65 21.65 70.2 24.65 63.55 22.95 70.0 20.2 76.05 L17.3 82.5 Q18.85 85.25 20.85 87.6 L21.4 88.25 21.9 88.8 23.85 90.75 23.75 91.05 23.3 91.2 23.4 91.35 23.3 91.65 22.85 91.75 22.55 91.7 22.5 91.7 Q21.6 91.4 20.25 89.7 L18.7 87.5 16.65 84.2 12.75 95.35 13.95 95.5 Q15.4 95.95 15.9 97.0 L17.15 96.3 Q19.1 100.4 22.15 103.65 16.6 109.65 10.2 114.95 9.0 116.05 7.6 116.45 L7.1 116.25 Q5.7 115.25 5.1 113.6 L4.1 116.0 3.6 115.85 3.65 115.75 3.65 115.6 3.6 115.6 3.4 116.5 3.35 116.75 3.1 116.75 2.95 116.65 2.95 116.25 Q2.95 115.55 3.6 113.85 L4.2 112.6 4.35 112.25 4.6 111.7 4.65 110.5 Q3.2 110.2 2.7 108.65 L2.45 106.55 2.55 104.5 3.1 103.55 2.45 100.65 1.7 93.15 Q1.7 89.85 2.05 85.8 2.3 78.75 3.6 69.35 L5.25 57.2 Q5.25 53.55 3.95 47.7 L2.85 44.25 1.45 39.05 Q-0.05 34.45 -0.05 31.9 -0.05 24.8 3.35 20.65 5.45 18.15 8.45 17.8 14.65 17.7 20.5 22.25 24.3 19.7 26.9 20.05 29.85 20.45 29.85 24.55 29.85 26.85 28.25 29.45 L28.2 29.45 28.0 29.8 Q30.15 32.55 32.4 34.7 L34.2 36.35 35.4 32.7 Q36.65 28.95 36.65 25.25 L36.55 21.85 35.5 17.75 33.7 11.3 33.9 10.8 34.0 10.8 33.95 10.55 33.8 10.7 M113.2 97.2 Q113.65 100.0 113.35 102.9 L112.9 102.85 112.6 101.8 113.2 97.2 M111.95 109.35 L111.9 109.4 Q102.65 114.75 92.05 117.65 83.1 120.2 73.75 119.2 L73.8 118.95 73.95 118.95 Q87.75 118.95 99.9 114.55 106.2 112.25 111.85 109.2 L111.95 109.35 M102.15 124.9 L99.75 128.05 Q98.1 130.15 93.95 133.45 88.45 137.8 81.75 141.4 74.9 145.1 67.8 147.5 L67.75 147.85 67.55 148.0 67.35 147.65 Q54.65 151.8 41.15 151.8 25.85 151.8 15.1 145.35 20.05 148.1 25.8 149.4 34.55 151.55 43.5 151.1 45.0 147.2 46.75 143.55 48.9 139.2 50.15 134.5 50.95 131.5 52.05 128.65 L52.85 126.65 52.6 128.05 52.4 128.8 Q49.55 141.6 44.15 150.55 L43.85 151.1 45.05 151.0 55.8 149.3 Q65.4 147.6 74.65 143.8 83.75 140.0 91.8 134.2 L82.95 127.4 Q77.45 123.35 72.7 121.45 L72.85 121.3 Q78.25 123.15 83.65 127.1 86.7 129.4 92.1 133.95 L94.35 132.2 Q98.6 128.75 102.15 124.9 M85.5 60.0 L85.95 60.1 Q89.65 60.9 94.6 63.35 L94.5 63.75 93.95 63.95 89.7 62.35 Q85.5 60.7 80.95 60.7 L77.55 60.95 75.45 61.45 Q76.55 60.75 77.8 60.35 L85.5 60.0 M70.4 73.95 L70.25 73.15 Q70.25 70.85 71.95 66.8 73.8 62.4 75.45 61.95 73.2 64.3 72.1 67.85 71.5 69.8 70.95 73.85 L70.95 73.9 70.4 73.95 M95.55 89.2 L95.75 89.25 95.75 89.55 Q95.75 92.3 85.25 104.3 75.95 115.0 73.35 116.95 L72.85 116.6 Q79.65 110.8 86.05 102.9 91.55 96.0 95.55 89.2 M46.95 17.7 L45.0 13.3 39.7 3.1 Q37.5 1.8 35.05 1.5 L32.4 1.7 Q31.55 1.95 30.9 2.55 30.25 3.2 30.1 4.1 29.55 7.7 32.1 10.45 L34.7 8.5 34.7 8.45 Q34.7 8.0 35.5 7.4 L36.7 6.25 36.95 5.0 Q37.0 4.15 37.45 4.0 L37.85 4.45 37.9 5.1 Q37.9 5.9 37.3 6.95 36.75 8.0 35.95 8.45 L34.45 10.0 34.65 10.5 Q36.55 15.75 37.05 17.85 L37.5 20.6 38.1 24.15 Q38.3 25.45 38.1 26.85 L37.5 29.4 37.15 31.65 Q36.5 35.0 35.4 36.55 L35.05 37.0 35.65 37.45 36.0 37.7 39.85 40.05 Q46.1 43.2 52.55 45.65 L51.75 37.3 51.75 35.75 Q51.75 30.05 51.0 26.9 50.3 23.85 48.7 21.1 L46.95 17.7 M25.7 21.3 Q23.55 21.3 20.5 23.5 L20.0 23.9 19.95 23.95 19.7 24.15 15.0 28.95 14.7 29.35 14.05 30.35 13.5 31.3 Q12.55 32.95 12.25 34.45 L12.1 35.75 Q12.1 37.65 13.3 39.25 L13.7 39.7 15.0 40.8 Q17.5 42.45 21.9 42.45 24.95 42.45 26.0 41.35 26.55 40.8 26.5 40.2 26.5 39.45 25.6 37.55 24.8 35.9 24.05 35.5 L23.7 35.35 23.75 35.45 23.9 35.65 24.6 37.0 Q25.35 38.55 25.35 39.15 25.35 40.05 24.7 40.7 24.0 41.45 22.85 41.45 19.4 41.45 17.6 40.05 L17.35 39.85 16.55 38.8 16.4 38.8 16.1 38.8 16.7 40.2 16.35 40.55 16.15 40.4 14.8 39.2 14.7 37.95 14.75 37.25 14.75 37.2 Q14.9 36.7 15.45 36.7 L15.6 37.1 15.9 38.1 18.55 37.4 18.9 37.2 19.2 37.05 19.55 36.85 20.15 36.5 Q22.2 35.1 24.45 32.6 L25.15 31.85 26.5 29.8 27.2 28.75 27.3 28.6 Q28.9 26.1 28.9 25.25 L28.9 25.15 28.9 25.05 28.8 24.55 Q28.4 21.65 26.25 21.35 L25.7 21.3 M19.55 22.9 L18.55 22.4 16.85 25.15 19.55 22.9 M25.8 32.85 L24.6 34.35 Q25.85 35.35 26.7 37.0 27.5 38.5 27.6 39.8 L32.8 42.95 Q35.5 44.35 38.55 45.55 42.55 47.1 53.6 50.45 58.9 52.0 63.55 56.1 L66.15 58.7 68.15 61.25 68.35 61.55 68.45 61.2 68.65 60.6 69.3 58.25 67.8 56.8 66.85 55.85 Q63.2 52.35 60.95 51.2 52.3 46.75 47.2 44.85 39.75 42.1 34.7 38.35 L33.05 37.0 Q29.4 33.85 27.65 30.3 L25.8 32.85 M24.15 39.8 L24.15 39.2 Q23.8 37.55 23.05 35.95 20.3 38.45 17.55 38.8 20.15 40.85 23.5 40.3 L24.15 39.8 M47.25 64.15 L47.25 64.3 47.2 64.6 Q42.9 64.7 37.35 67.25 36.95 67.45 36.6 67.6 34.25 68.7 32.75 69.75 L32.55 69.9 31.5 70.7 31.0 71.15 30.9 71.25 30.7 71.45 31.65 69.95 31.7 69.9 32.85 68.85 32.95 68.75 35.0 67.45 36.15 66.85 36.6 66.65 Q41.1 64.6 47.1 63.7 L47.2 63.85 47.25 64.15 M32.3 79.7 Q31.65 77.15 31.65 74.45 31.6 73.3 31.7 72.1 L33.8 83.65 33.7 83.8 Q32.9 81.95 32.4 80.1 L32.3 79.7 M12.6 96.2 L12.5 96.8 12.6 97.05 12.25 97.1 11.9 98.2 12.0 98.2 12.2 97.85 12.85 98.1 13.35 98.05 14.4 99.15 14.65 99.5 14.75 99.45 15.45 99.95 15.9 99.7 Q16.2 98.55 15.0 97.2 13.8 95.75 12.6 96.2 M22.5 91.7 L20.75 93.1 19.85 93.65 22.5 91.7 M57.75 94.05 L57.75 92.95 58.2 92.95 Q62.5 102.45 62.25 115.6 L62.25 117.3 61.85 117.6 61.8 117.4 Q61.05 114.45 60.3 105.9 59.65 98.45 57.75 94.05 M48.45 122.7 L48.45 122.95 48.1 123.05 Q43.6 123.05 36.1 115.85 29.6 109.6 28.45 106.6 L28.6 106.6 Q32.45 111.95 35.3 114.6 40.6 119.5 48.45 122.7 M8.95 124.6 Q15.05 128.7 22.35 129.4 28.85 129.55 35.45 129.1 38.3 128.85 40.8 128.05 44.5 126.9 47.85 125.55 48.25 125.45 48.35 125.7 48.6 126.05 48.1 126.4 47.2 127.2 46.1 127.65 40.55 129.85 34.45 130.2 24.1 131.0 14.2 128.3 10.95 127.35 8.8 124.8 L8.95 124.6 M62.2 125.85 L62.35 125.85 63.15 128.45 65.35 135.75 Q67.0 141.7 67.35 145.95 L66.85 146.2 64.4 137.05 Q62.95 131.45 62.4 128.65 L62.1 126.4 62.2 125.85 M5.5 109.4 L5.1 108.65 5.15 108.35 Q4.05 106.75 3.6 104.95 L3.6 106.4 Q3.6 108.75 5.6 109.75 L5.7 109.6 5.5 109.4" fill="#000000" fill-rule="evenodd" stroke="none"/>
      <path d="M53.1 65.0 L53.1 66.0 51.85 69.85 Q50.6 73.8 50.6 76.25 L50.6 77.15 50.8 77.65 Q45.3 79.3 40.1 81.6 38.45 82.3 36.8 83.1 L36.05 83.5 32.8 85.15 32.4 80.1 Q32.9 81.95 33.7 83.8 L33.8 83.65 31.7 72.1 Q31.6 73.3 31.65 74.45 31.65 77.15 32.3 79.7 31.45 77.9 30.9 75.65 30.3 73.05 31.0 71.15 L31.5 70.7 32.55 69.9 32.75 69.75 Q34.25 68.7 36.6 67.6 36.95 67.45 37.35 67.25 42.9 64.7 47.2 64.6 L47.25 64.3 47.25 64.15 49.3 63.95 Q51.4 64.05 53.1 65.0 M98.05 63.7 L97.5 65.0 Q96.75 66.75 95.5 67.95 L92.8 70.8 Q90.8 73.0 90.65 75.8 L87.55 75.05 Q79.5 73.45 70.95 73.9 L70.95 73.85 Q71.5 69.8 72.1 67.85 73.2 64.3 75.45 61.95 73.8 62.4 71.95 66.8 70.25 70.85 70.25 73.15 L70.4 73.95 70.1 73.95 69.8 73.95 70.1 73.95 69.8 74.0 69.8 73.95 69.85 72.8 Q70.4 66.15 75.05 61.0 77.35 58.5 80.8 58.45 87.5 58.9 93.75 61.3 96.15 62.2 98.05 63.7 M85.5 60.0 L77.8 60.35 Q76.55 60.75 75.45 61.45 L77.55 60.95 80.95 60.7 Q85.5 60.7 89.7 62.35 L93.95 63.95 94.5 63.75 94.6 63.35 Q89.65 60.9 85.95 60.1 L85.5 60.0 M12.25 34.45 L12.35 34.45 Q23.85 35.15 25.55 22.8 L25.7 21.3 26.25 21.35 Q28.4 21.65 28.8 24.55 L28.9 25.05 28.9 25.15 28.9 25.25 Q28.9 26.1 27.3 28.6 L27.2 28.75 26.5 29.8 25.15 31.85 24.45 32.6 Q22.2 35.1 20.15 36.5 L19.55 36.85 19.2 37.05 18.9 37.2 18.55 37.4 15.9 38.1 15.6 37.1 15.45 36.7 Q14.9 36.7 14.75 37.2 L14.75 37.25 14.7 37.95 14.8 39.2 16.15 40.4 16.35 40.55 16.7 40.2 16.1 38.8 16.4 38.8 16.55 38.8 17.35 39.85 17.6 40.05 Q19.4 41.45 22.85 41.45 24.0 41.45 24.7 40.7 25.35 40.05 25.35 39.15 25.35 38.55 24.6 37.0 L23.9 35.65 23.75 35.45 23.7 35.35 24.05 35.5 Q24.8 35.9 25.6 37.55 26.5 39.45 26.5 40.2 26.55 40.8 26.0 41.35 24.95 42.45 21.9 42.45 17.5 42.45 15.0 40.8 L13.7 39.7 13.3 39.25 Q12.1 37.65 12.1 35.75 L12.25 34.45 M36.6 66.65 L36.15 66.85 35.0 67.45 32.95 68.75 32.85 68.85 31.7 69.9 Q32.25 69.1 33.1 68.45 33.5 67.9 34.35 67.55 L36.6 66.65" fill="#f99108" fill-rule="evenodd" stroke="none"/>
      <path d="M3.35 116.75 L3.4 116.5 3.6 115.85 4.1 116.0 5.1 113.6 Q5.7 115.25 7.1 116.25 L7.6 116.45 Q9.0 116.05 10.2 114.95 16.6 109.65 22.15 103.65 19.1 100.4 17.15 96.3 L20.75 93.1 22.5 91.7 22.55 91.7 22.85 91.75 23.3 91.65 23.4 91.35 23.3 91.2 23.75 91.05 23.85 90.75 30.35 86.55 30.7 86.7 31.2 86.5 31.25 86.2 31.2 86.05 32.35 85.4 32.8 85.15 36.05 83.5 36.8 83.1 Q38.45 82.3 40.1 81.6 45.3 79.3 50.8 77.65 56.15 76.0 61.3 75.1 L67.25 74.25 67.45 74.45 67.95 74.2 67.95 74.15 69.8 73.95 69.8 74.0 70.1 73.95 70.4 73.95 70.95 73.9 Q79.5 73.45 87.55 75.05 L90.65 75.8 90.95 75.85 Q102.25 78.85 107.95 85.6 110.45 88.6 111.9 92.4 100.9 77.05 81.8 76.45 75.45 77.05 69.15 78.45 68.3 78.65 68.35 79.55 L68.5 79.9 Q85.8 76.45 100.5 85.1 108.9 90.05 111.45 98.85 109.9 95.95 107.2 94.0 102.05 90.25 95.75 89.25 L95.55 89.2 89.95 88.45 Q75.2 87.2 58.1 92.4 L57.7 92.55 Q47.6 95.7 38.2 100.35 29.05 104.85 21.1 111.2 14.0 116.95 8.95 124.6 L8.8 124.8 Q6.3 128.9 5.6 132.75 5.3 134.4 5.35 136.05 2.3 130.85 2.25 124.7 2.25 120.55 3.35 116.75" fill="#d60101" fill-rule="evenodd" stroke="none"/>
      <path d="M111.9 92.4 L112.0 92.65 112.0 92.7 Q112.8 94.9 113.2 97.2 L112.6 101.8 111.45 98.85 Q108.9 90.05 100.5 85.1 85.8 76.45 68.5 79.9 L68.35 79.55 Q68.3 78.65 69.15 78.45 75.45 77.05 81.8 76.45 100.9 77.05 111.9 92.4" fill="#feabab" fill-rule="evenodd" stroke="none"/>
      <path d="M33.8 10.7 L33.95 10.55 34.0 10.8 33.9 10.8 33.8 10.7" fill="#ef309d" fill-rule="evenodd" stroke="none"/>
      <path d="M50.6 77.15 L51.85 76.65 Q52.05 71.05 54.55 65.95 L54.2 64.15 Q58.95 62.75 64.15 61.9 L65.15 60.1 65.5 59.55 67.15 61.4 68.05 62.6 67.95 62.8 Q66.7 67.1 66.7 71.0 66.7 73.4 67.25 74.25 L61.3 75.1 Q56.15 76.0 50.8 77.65 L50.6 77.15 M26.05 50.6 Q24.5 47.05 22.25 43.7 L23.8 43.4 Q25.0 43.2 26.1 42.65 L26.65 42.25 Q27.35 41.5 27.6 40.35 29.9 42.3 32.5 43.8 31.65 46.05 29.85 47.9 28.15 49.7 26.05 50.6" fill="#cdcdcd" fill-rule="evenodd" stroke="none"/>
      <path d="M24.15 39.8 L23.5 40.3 Q20.15 40.85 17.55 38.8 20.3 38.45 23.05 35.95 23.8 37.55 24.15 39.2 L24.15 39.8" fill="#990100" fill-rule="evenodd" stroke="none"/>
      <path d="M54.2 64.15 L53.5 61.3 52.8 59.6 Q51.8 57.8 49.75 57.45 L47.85 57.55 Q38.45 58.5 30.1 62.75 L29.35 63.05 Q28.6 56.5 26.05 50.6 28.15 49.7 29.85 47.9 31.65 46.05 32.5 43.8 35.7 45.7 39.35 46.95 L46.15 49.25 Q50.35 50.7 54.45 52.4 57.6 53.55 60.35 55.3 63.2 57.15 65.5 59.55 L65.15 60.1 64.15 61.9 Q58.95 62.75 54.2 64.15" fill="#ffffff" fill-rule="evenodd" stroke="none"/>
      <path d="M13.9 99.6 L13.95 99.7 Q14.35 100.45 14.95 100.45 16.35 100.45 16.15 98.15 L16.15 97.75 16.6 97.75 19.55 101.5 17.7 103.2 Q11.7 108.95 8.05 115.15 L7.35 115.6 5.7 112.2 6.35 110.0 6.45 110.0 Q7.1 109.35 7.15 108.4 L7.15 108.25 7.1 107.8 7.35 108.05 7.4 108.0 7.6 107.65 8.0 107.05 8.4 106.5 9.4 105.1 Q10.05 105.1 10.5 104.5 10.95 103.85 10.95 103.0 L13.9 99.6 M12.6 96.2 Q13.8 95.75 15.0 97.2 16.2 98.55 15.9 99.7 L15.45 99.95 14.75 99.45 14.65 99.5 14.4 99.15 13.35 98.05 12.85 98.1 12.2 97.85 12.0 98.2 11.9 98.2 12.25 97.1 12.6 97.05 12.5 96.8 12.6 96.2 M7.15 108.4 L7.35 108.05 7.15 108.4 M5.5 109.4 L5.7 109.6 5.6 109.75 Q3.6 108.75 3.6 106.4 L3.6 104.95 Q4.05 106.75 5.15 108.35 L5.1 108.65 5.5 109.4" fill="#8a9697" fill-rule="evenodd" stroke="none"/>
      <path d="M19.55 101.5 L21.0 103.35 Q15.55 109.95 8.25 115.0 L8.05 115.15 Q11.7 108.95 17.7 103.2 L19.55 101.5" fill="#ced2d2" fill-rule="evenodd" stroke="none"/>
      <path d="M3.65 115.75 L3.6 115.85 M9.4 105.1 L10.95 103.0 M90.95 75.85 Q102.25 78.85 107.95 85.6 110.45 88.6 111.9 92.4 L112.0 92.65 112.0 92.7 Q112.8 94.9 113.2 97.2 113.65 100.0 113.35 102.9 L113.2 104.25 111.95 109.35 M111.9 109.4 L110.4 112.75 Q107.1 119.5 102.15 124.9 M15.1 145.35 L13.05 144.05 Q8.25 140.95 5.35 136.05 2.3 130.85 2.25 124.7 2.25 120.55 3.35 116.75 M69.8 73.95 L70.1 73.95 70.4 73.95 M70.95 73.9 Q79.5 73.45 87.55 75.05 L90.65 75.8 M95.75 89.25 Q102.05 90.25 107.2 94.0 109.9 95.95 111.45 98.85 M8.95 124.6 Q14.0 116.95 21.1 111.2 29.05 104.85 38.2 100.35 47.6 95.7 57.7 92.55 L58.1 92.4 Q75.2 87.2 89.95 88.45 L95.55 89.2 M32.8 85.15 L36.05 83.5 36.8 83.1 Q38.45 82.3 40.1 81.6 45.3 79.3 50.8 77.65 M31.2 86.05 L32.35 85.4 32.8 85.15 M20.75 93.1 L22.5 91.7 M20.75 93.1 L17.15 96.3 M30.35 86.55 L23.85 90.75 M67.95 74.15 L69.8 73.95 M67.25 74.25 L61.3 75.1 Q56.15 76.0 50.8 77.65 M62.25 117.3 L69.2 116.65 Q72.0 116.7 73.1 117.45 L73.8 118.95 M73.75 119.2 Q73.15 120.6 71.9 121.45 L71.75 121.5 Q63.3 126.45 53.7 126.65 L52.85 126.65 M43.85 151.1 L45.05 151.0 55.8 149.3 Q65.4 147.6 74.65 143.8 83.75 140.0 91.8 134.2 M92.1 133.95 L94.35 132.2 Q98.6 128.75 102.15 124.9 M43.5 151.1 Q34.55 151.55 25.8 149.4 20.05 148.1 15.1 145.35 M61.8 117.4 Q54.7 118.65 48.85 123.05 47.75 123.9 48.1 125.15 L48.55 125.55 49.0 125.85 Q50.75 126.85 52.85 126.65 M8.8 124.8 Q6.3 128.9 5.6 132.75 5.3 134.4 5.35 136.05 M9.4 105.1 L8.4 106.5 M8.0 107.05 L7.6 107.65 M7.4 108.0 L7.35 108.05 7.15 108.4 M13.9 99.6 L10.95 103.0 M3.4 116.5 L3.6 115.85 M113.2 104.25 L112.9 102.85 112.6 101.8 111.45 98.85" fill="none" stroke="#000000" stroke-linecap="round" stroke-linejoin="round" stroke-width="1.0"/>
    </g>
    <g id="sprite1" transform="matrix(1.0, 0.0, 0.0, 1.0, 0.0, 0.05)">
      <use height="60.45" transform="matrix(1.0, 0.0, 0.0, 1.0, 0.0, -0.05)" width="59.15" xlink:href="#shape2"/>
    </g>
    <g id="shape2" transform="matrix(1.0, 0.0, 0.0, 1.0, 0.0, 0.05)">
      <path d="M23.05 9.05 Q23.05 10.9 22.6 12.6 19.8 11.1 17.4 9.45 17.3 8.15 16.5 6.65 15.65 5.0 14.4 4.0 L15.6 2.5 17.45 -0.05 Q19.2 3.5 22.85 6.65 L23.05 9.05 M58.5 30.3 L58.3 30.9 58.0 30.95 56.0 28.4 Q56.8 27.3 57.65 26.5 L59.15 27.95 58.5 30.3 M17.3 9.9 Q19.6 11.85 22.2 13.35 21.35 15.6 19.55 17.45 17.85 19.25 15.75 20.15 14.2 16.6 11.95 13.25 L13.5 12.95 15.8 12.2 16.35 11.8 Q17.05 11.05 17.3 9.9 M1.8 8.8 Q2.95 10.75 4.85 11.7 6.75 12.7 8.95 13.15 L11.75 13.25 Q13.65 16.8 15.05 20.5 L11.55 21.0 Q6.75 21.0 3.35 17.45 0.0 13.95 0.0 8.95 0.0 5.8 1.35 3.2 1.0 4.75 1.1 6.35 1.2 7.7 1.8 8.8 M16.55 44.55 L17.15 47.6 17.25 48.05 Q18.9 55.2 20.15 56.2 L13.65 60.4 11.7 58.45 11.4 55.3 Q11.25 47.95 15.55 40.0 L15.75 41.35 16.55 44.55" fill="#000000" fill-opacity="0.14509805" fill-rule="evenodd" stroke="none"/>
    </g>
    <g id="sprite2" transform="matrix(1.0, 0.0, 0.0, 1.0, 0.0, 0.0)">
      <use height="97.55" transform="matrix(1.0, 0.0, 0.0, 1.0, 0.0, 0.0)" width="38.6" xlink:href="#shape3"/>
    </g>
    <g id="shape3" transform="matrix(1.0, 0.0, 0.0, 1.0, 0.0, 0.0)">
      <path d="M35.75 10.1 L35.3 7.35 Q34.8 5.25 32.9 0.0 38.65 7.5 38.6 17.95 38.6 24.55 34.25 27.2 L33.9 26.95 33.5 26.65 33.65 26.05 Q34.75 24.5 35.4 21.15 L35.75 18.9 36.35 16.35 Q36.55 14.95 36.35 13.65 L35.75 10.1 M5.6 8.8 L5.65 8.8 8.95 8.5 10.25 8.75 Q11.5 9.1 12.75 9.6 9.85 10.15 7.65 11.25 L6.35 12.75 Q3.25 16.25 3.35 20.95 L3.35 25.0 Q9.55 46.05 5.2 68.3 2.35 82.8 6.65 96.0 L6.25 96.55 5.85 97.15 5.65 97.5 5.6 97.55 5.35 97.3 5.45 96.75 5.1 96.3 Q3.85 93.65 2.8 88.2 1.7 82.7 1.7 78.95 L1.95 72.1 2.8 63.5 3.0 62.1 4.8 50.45 Q5.4 46.55 4.85 42.85 L4.3 39.65 4.3 39.45 3.4 34.95 3.35 34.75 2.45 31.05 1.7 28.1 1.15 26.0 Q0.0 21.35 0.0 20.45 L0.1 18.4 Q0.35 15.6 1.4 13.3 2.65 10.55 4.75 9.15 L5.1 9.0 5.25 8.95 5.35 8.9 5.45 8.85 5.6 8.8" fill="#ffffff" fill-opacity="0.29803923" fill-rule="evenodd" stroke="none"/>
    </g>
  </defs>
</svg>
